<?xml version="1.0" encoding="UTF-8" standalone="no"?>
<svg
   id="Layer_2"
   viewBox="0 0 252.56 264"
   version="1.1"
   sodipodi:docname="verified hot.svg"
   width="252.56"
   height="264"
   inkscape:version="1.2.2 (732a01da63, 2022-12-09)"
   xmlns:inkscape="http://www.inkscape.org/namespaces/inkscape"
   xmlns:sodipodi="http://sodipodi.sourceforge.net/DTD/sodipodi-0.dtd"
   xmlns="http://www.w3.org/2000/svg"
   xmlns:svg="http://www.w3.org/2000/svg">
  <sodipodi:namedview
     id="namedview100"
     pagecolor="#ffffff"
     bordercolor="#000000"
     borderopacity="0.25"
     inkscape:showpageshadow="2"
     inkscape:pageopacity="0.0"
     inkscape:pagecheckerboard="0"
     inkscape:deskcolor="#d1d1d1"
     showgrid="false"
     inkscape:zoom="2.5318108"
     inkscape:cx="77.612436"
     inkscape:cy="114.14755"
     inkscape:window-width="1920"
     inkscape:window-height="974"
     inkscape:window-x="-11"
     inkscape:window-y="-11"
     inkscape:window-maximized="1"
     inkscape:current-layer="Layer_2" />
  <defs
     id="defs54">
    <style
       id="style52">.cls-2{fill:#fa320a}.cls-3{fill:#005d7a}.cls-4{fill:#007870}.cls-8{fill:#fff}.cls-9{fill:#ffe600}.cls-10{fill:gold}</style>
  </defs>
  <g
     id="Layer_1-2"
     transform="matrix(0.86134499,0,0,0.86134499,-3.6786024e-4,7.4274538e-4)">
    <path
       d="m 269.93,213.81 c -0.35,0.61 -0.7,1.21 -1.08,1.79 0.38,-0.59 0.73,-1.19 1.08,-1.79 m 1.11,-2.09 c -0.3,0.61 -0.61,1.23 -0.95,1.82 0.33,-0.6 0.65,-1.21 0.95,-1.82 M 20.22,206.99 c -0.19,-0.56 -0.35,-1.13 -0.51,-1.69 0.16,0.57 0.32,1.14 0.51,1.69 m 1.82,4.46 c -0.24,-0.49 -0.45,-1 -0.67,-1.5 0.22,0.5 0.43,1.01 0.67,1.5 m 242.2,9.95 c -0.51,0.52 -1.02,1.04 -1.56,1.53 0.54,-0.5 1.05,-1.01 1.56,-1.53 m -1.73,1.68 q -0.81,0.735 -1.65,1.44 0.855,-0.69 1.65,-1.44 m 11.6,-20.25 c -0.13,0.61 -0.26,1.22 -0.42,1.82 0.16,-0.6 0.29,-1.21 0.42,-1.82 m -254.58,1.84 c -0.14,-0.52 -0.25,-1.06 -0.37,-1.59 0.12,0.53 0.23,1.07 0.37,1.59 m -0.55,-2.37 c -0.11,-0.56 -0.19,-1.12 -0.28,-1.69 0.09,0.56 0.17,1.13 0.28,1.69 m 253.83,5.17 c -0.21,0.59 -0.41,1.18 -0.65,1.75 0.23,-0.58 0.44,-1.16 0.65,-1.75 m -0.84,2.2 c -0.25,0.59 -0.5,1.17 -0.77,1.75 0.28,-0.57 0.53,-1.16 0.77,-1.75 m 1.56,-4.49 c -0.17,0.6 -0.34,1.19 -0.53,1.78 0.2,-0.59 0.37,-1.18 0.53,-1.78 m 1.02,-4.82 c -0.09,0.65 -0.19,1.29 -0.32,1.93 0.13,-0.64 0.22,-1.28 0.32,-1.93 m -242.13,24.2 c -0.52,-0.42 -1.02,-0.87 -1.52,-1.31 0.5,0.45 1,0.89 1.52,1.31 m 1.93,1.47 c -0.56,-0.4 -1.1,-0.81 -1.63,-1.23 0.53,0.42 1.07,0.84 1.63,1.23 m -5.49,-4.74 q -0.705,-0.75 -1.38,-1.53 c 0.45,0.52 0.9,1.03 1.38,1.53 m -1.61,-1.79 c -0.45,-0.53 -0.87,-1.07 -1.28,-1.62 0.42,0.55 0.84,1.1 1.28,1.62 m -4.1,-5.92 c -0.3,-0.53 -0.57,-1.07 -0.84,-1.61 0.27,0.54 0.54,1.08 0.84,1.61 m 237.52,11.08 c -0.57,0.46 -1.14,0.9 -1.74,1.33 0.6,-0.42 1.17,-0.87 1.74,-1.33 M 24.39,215.64 c -0.33,-0.51 -0.64,-1.03 -0.94,-1.56 0.31,0.52 0.61,1.05 0.94,1.56 m 6.19,7.34 c -0.51,-0.47 -1,-0.96 -1.49,-1.46 0.48,0.5 0.97,0.99 1.49,1.46"
       style="fill:none"
       id="path56" />
    <path
       d="m 260.67,224.66 c 0.06,-0.05 0.13,-0.1 0.19,-0.14 q 0.855,-0.69 1.65,-1.44 c 0.06,-0.05 0.12,-0.1 0.17,-0.15 0.54,-0.5 1.05,-1.01 1.56,-1.53 0.05,-0.05 0.11,-0.1 0.16,-0.16 0.51,-0.54 1.01,-1.1 1.49,-1.67 0.04,-0.04 0.07,-0.08 0.11,-0.12 0.46,-0.54 0.89,-1.1 1.32,-1.67 0.05,-0.07 0.11,-0.14 0.17,-0.21 0.43,-0.59 0.84,-1.19 1.24,-1.8 0.04,-0.06 0.08,-0.12 0.12,-0.17 0.38,-0.59 0.73,-1.19 1.08,-1.79 0.05,-0.09 0.11,-0.17 0.16,-0.26 0.33,-0.6 0.65,-1.21 0.95,-1.82 0.05,-0.1 0.11,-0.2 0.16,-0.31 0.28,-0.57 0.53,-1.16 0.77,-1.75 0.06,-0.15 0.14,-0.3 0.2,-0.45 0.23,-0.58 0.44,-1.16 0.65,-1.75 0.06,-0.17 0.13,-0.34 0.19,-0.51 0.2,-0.59 0.37,-1.18 0.53,-1.78 0.05,-0.18 0.11,-0.35 0.16,-0.53 0.16,-0.6 0.29,-1.21 0.42,-1.82 0.04,-0.18 0.09,-0.36 0.13,-0.55 0.13,-0.64 0.22,-1.28 0.32,-1.93 0.02,-0.16 0.06,-0.32 0.08,-0.48 0.09,-0.69 0.15,-1.39 0.2,-2.08 0,-0.12 0.03,-0.24 0.03,-0.36 0.05,-0.82 0.08,-1.64 0.08,-2.47 V 85.35 c 0,-14.9 -8.76,-28.51 -22.32,-34.68 L 162.39,9.6 a 38.1,38.1 0 0 0 -31.56,0 L 40.58,50.67 C 27.02,56.84 18.26,70.45 18.26,85.35 v 109.61 c 0,1.66 0.11,3.31 0.32,4.93 0.03,0.24 0.08,0.48 0.12,0.73 0.09,0.56 0.17,1.13 0.28,1.69 0.05,0.26 0.12,0.52 0.18,0.78 0.12,0.53 0.23,1.07 0.37,1.59 0.06,0.21 0.13,0.42 0.19,0.63 0.16,0.57 0.32,1.14 0.51,1.69 0.06,0.19 0.14,0.38 0.21,0.57 0.2,0.57 0.4,1.13 0.63,1.69 0.1,0.24 0.21,0.47 0.31,0.7 0.22,0.5 0.43,1.01 0.67,1.5 0.09,0.18 0.18,0.35 0.27,0.52 0.27,0.54 0.54,1.08 0.84,1.61 0.09,0.17 0.2,0.33 0.3,0.5 0.31,0.53 0.61,1.05 0.94,1.56 l 0.27,0.39 c 0.36,0.54 0.72,1.07 1.1,1.59 0.07,0.09 0.14,0.17 0.21,0.26 0.42,0.55 0.84,1.1 1.28,1.62 0.07,0.09 0.16,0.17 0.23,0.26 0.45,0.52 0.9,1.03 1.38,1.53 0.08,0.08 0.16,0.15 0.24,0.23 0.48,0.5 0.98,0.99 1.49,1.46 0.1,0.09 0.21,0.18 0.31,0.27 0.5,0.45 1,0.89 1.52,1.31 0.1,0.08 0.21,0.15 0.31,0.23 0.53,0.42 1.07,0.84 1.63,1.23 0.13,0.09 0.27,0.17 0.4,0.26 0.54,0.37 1.09,0.74 1.65,1.09 3.09,-0.53 6.19,-1.02 9.3,-1.51 l 201.82,-0.02 c 3.12,0.49 6.21,0.95 9.37,1.48 0.62,-0.38 1.22,-0.79 1.81,-1.2 0.07,-0.05 0.15,-0.1 0.23,-0.15 0.6,-0.42 1.17,-0.87 1.74,-1.33 z"
       style="fill:#4cbfb4"
       id="path58" />
    <path
       d="M 255.19,45.04 164.95,3.98 a 44.3,44.3 0 0 0 -36.68,0 L 38.02,45.04 C 22.26,52.21 12.08,68.03 12.08,85.34 v 109.61 c 0,13.24 5.97,25.6 15.83,33.89 2.81,-0.51 5.63,-1 8.46,-1.48 -0.55,-0.34 -1.08,-0.7 -1.62,-1.07 -0.13,-0.09 -0.27,-0.17 -0.4,-0.26 -0.56,-0.4 -1.1,-0.81 -1.63,-1.23 -0.1,-0.08 -0.21,-0.15 -0.31,-0.23 -0.52,-0.42 -1.02,-0.87 -1.52,-1.31 -0.1,-0.09 -0.21,-0.18 -0.31,-0.27 -0.51,-0.47 -1,-0.96 -1.49,-1.46 -0.08,-0.08 -0.16,-0.15 -0.24,-0.23 q -0.705,-0.75 -1.38,-1.53 c -0.08,-0.09 -0.16,-0.17 -0.23,-0.26 -0.45,-0.53 -0.87,-1.07 -1.28,-1.62 -0.07,-0.09 -0.14,-0.17 -0.21,-0.26 -0.38,-0.52 -0.74,-1.05 -1.1,-1.59 l -0.27,-0.39 c -0.33,-0.51 -0.64,-1.03 -0.94,-1.56 -0.1,-0.17 -0.2,-0.33 -0.3,-0.5 -0.3,-0.53 -0.57,-1.07 -0.84,-1.61 -0.09,-0.18 -0.19,-0.35 -0.27,-0.52 -0.24,-0.49 -0.45,-1 -0.67,-1.5 -0.1,-0.24 -0.21,-0.46 -0.31,-0.7 -0.23,-0.56 -0.43,-1.12 -0.63,-1.69 -0.07,-0.19 -0.15,-0.38 -0.21,-0.57 -0.19,-0.56 -0.35,-1.13 -0.51,-1.69 -0.06,-0.21 -0.13,-0.41 -0.19,-0.63 -0.14,-0.52 -0.25,-1.06 -0.37,-1.59 -0.06,-0.26 -0.13,-0.52 -0.18,-0.78 -0.11,-0.56 -0.19,-1.12 -0.28,-1.69 -0.04,-0.24 -0.09,-0.48 -0.12,-0.73 -0.21,-1.62 -0.32,-3.27 -0.32,-4.93 V 85.35 C 18.24,70.45 27,56.84 40.56,50.67 L 130.82,9.6 a 38.106,38.106 0 0 1 31.56,0 l 90.24,41.07 c 13.56,6.17 22.32,19.78 22.32,34.68 v 109.61 c 0,0.83 -0.03,1.65 -0.08,2.47 0,0.12 -0.03,0.24 -0.03,0.36 -0.05,0.7 -0.11,1.39 -0.2,2.08 -0.02,0.16 -0.06,0.32 -0.08,0.48 -0.09,0.65 -0.19,1.29 -0.32,1.93 -0.04,0.18 -0.09,0.36 -0.13,0.55 -0.13,0.61 -0.26,1.22 -0.42,1.82 -0.05,0.18 -0.11,0.36 -0.16,0.53 -0.17,0.6 -0.34,1.19 -0.53,1.78 -0.06,0.17 -0.13,0.34 -0.19,0.51 -0.21,0.59 -0.41,1.18 -0.65,1.75 -0.06,0.15 -0.14,0.3 -0.2,0.45 -0.25,0.59 -0.5,1.18 -0.77,1.75 -0.05,0.1 -0.11,0.2 -0.16,0.31 -0.3,0.61 -0.61,1.23 -0.95,1.82 -0.05,0.09 -0.11,0.17 -0.16,0.26 -0.35,0.61 -0.7,1.21 -1.08,1.79 -0.04,0.06 -0.08,0.12 -0.12,0.17 -0.4,0.61 -0.81,1.21 -1.24,1.8 -0.05,0.07 -0.11,0.14 -0.17,0.21 -0.43,0.57 -0.86,1.13 -1.32,1.67 -0.04,0.04 -0.07,0.08 -0.11,0.12 -0.48,0.57 -0.98,1.13 -1.49,1.67 -0.05,0.05 -0.11,0.1 -0.16,0.16 -0.51,0.52 -1.02,1.04 -1.56,1.53 -0.06,0.05 -0.12,0.1 -0.17,0.15 q -0.81,0.735 -1.65,1.44 c -0.06,0.05 -0.13,0.1 -0.19,0.14 -0.57,0.46 -1.14,0.9 -1.74,1.33 -0.07,0.05 -0.15,0.1 -0.23,0.15 -0.57,0.4 -1.15,0.8 -1.75,1.17 2.79,0.47 5.61,0.97 8.44,1.48 9.8,-8.29 15.74,-20.62 15.74,-33.82 V 85.36 c 0,-17.31 -10.18,-33.13 -25.94,-40.3 z"
       class="cls-4"
       id="path60" />
    <path
       d="m 19.16,203.08 c -0.06,-0.26 -0.13,-0.52 -0.18,-0.78 0.05,0.26 0.12,0.52 0.18,0.78 m 13.57,21.72 c -0.1,-0.08 -0.21,-0.15 -0.31,-0.23 0.1,0.08 0.21,0.15 0.31,0.23 m -1.83,-1.55 c -0.1,-0.09 -0.21,-0.18 -0.31,-0.27 0.1,0.09 0.21,0.18 0.31,0.27 M 18.7,200.61 c -0.04,-0.24 -0.09,-0.48 -0.12,-0.73 0.03,0.24 0.08,0.48 0.12,0.73 m 1.02,4.68 c -0.06,-0.21 -0.13,-0.41 -0.19,-0.63 0.06,0.21 0.13,0.42 0.19,0.63 m 3.73,8.79 c -0.1,-0.17 -0.2,-0.33 -0.3,-0.5 0.09,0.17 0.2,0.33 0.3,0.5 m 1.21,1.94 -0.27,-0.39 c 0.08,0.13 0.18,0.26 0.27,0.39 m -3.29,-6.07 c -0.1,-0.24 -0.21,-0.47 -0.31,-0.7 0.1,0.24 0.21,0.47 0.31,0.7 m 0.94,2.02 c -0.09,-0.18 -0.19,-0.35 -0.27,-0.52 0.09,0.18 0.18,0.35 0.27,0.52 m 6.79,9.55 c -0.08,-0.08 -0.16,-0.15 -0.24,-0.23 0.08,0.08 0.16,0.15 0.24,0.23 m -3.13,-3.65 c -0.07,-0.09 -0.14,-0.17 -0.21,-0.26 0.07,0.09 0.14,0.17 0.21,0.26 m 1.52,1.89 c -0.08,-0.09 -0.16,-0.17 -0.23,-0.26 0.08,0.09 0.16,0.17 0.23,0.26 m -7.06,-12.2 c -0.07,-0.19 -0.15,-0.38 -0.21,-0.57 0.06,0.19 0.14,0.38 0.21,0.57 m 240.43,16.96 c -0.06,0.05 -0.13,0.1 -0.19,0.14 0.06,-0.05 0.13,-0.1 0.19,-0.14 m 5.14,-5.07 c 0,0 -0.07,0.08 -0.11,0.12 0.04,-0.04 0.07,-0.08 0.11,-0.12 m 1.49,-1.88 c -0.05,0.07 -0.11,0.14 -0.17,0.21 0.05,-0.07 0.11,-0.14 0.17,-0.21 m 1.36,-1.97 c -0.04,0.06 -0.08,0.12 -0.12,0.17 0.04,-0.06 0.08,-0.12 0.12,-0.17 m -4.45,5.64 c -0.05,0.05 -0.11,0.1 -0.16,0.16 0.05,-0.05 0.11,-0.1 0.16,-0.16 m -5.7,4.9 c 0.07,-0.05 0.15,-0.1 0.23,-0.15 -0.07,0.05 -0.15,0.1 -0.23,0.15 M 34.75,226.3 c -0.13,-0.09 -0.27,-0.17 -0.4,-0.26 0.13,0.09 0.27,0.17 0.4,0.26 m 227.93,-3.37 c -0.06,0.05 -0.12,0.1 -0.17,0.15 0.06,-0.05 0.12,-0.1 0.17,-0.15 M 273,206.96 c -0.06,0.17 -0.13,0.34 -0.19,0.51 0.06,-0.17 0.13,-0.34 0.19,-0.51 m 1.24,-4.68 c -0.04,0.18 -0.09,0.36 -0.13,0.55 0.04,-0.18 0.09,-0.36 0.13,-0.55 m 0.39,-2.4 c -0.02,0.16 -0.06,0.32 -0.08,0.48 0.02,-0.16 0.06,-0.32 0.08,-0.48 m -0.94,4.77 c -0.05,0.18 -0.11,0.36 -0.16,0.53 0.05,-0.18 0.11,-0.35 0.16,-0.53 m -3.6,8.89 c -0.05,0.09 -0.11,0.17 -0.16,0.26 0.05,-0.09 0.11,-0.17 0.16,-0.26 m 4.78,-16.11 c 0,0.12 -0.03,0.24 -0.03,0.36 0,-0.12 0.03,-0.24 0.03,-0.36 m -3.68,13.98 c -0.05,0.1 -0.11,0.2 -0.16,0.31 0.05,-0.1 0.11,-0.2 0.16,-0.31 m 0.98,-2.19 c -0.06,0.15 -0.14,0.3 -0.2,0.45 0.06,-0.15 0.14,-0.3 0.2,-0.45"
       class="cls-4"
       id="path62" />
    <path
       d="m 171.2,261.1 c -0.98,0.15 -1.96,0.3 -2.95,0.44 0.89,-0.25 1.88,-0.4 2.95,-0.44"
       class="cls-10"
       id="path64" />
    <path
       d="m 65.83,286.85 c -15.97,1.01 -29.64,8.76 -37.68,19.45 -0.25,0.28 -0.64,0.27 -0.76,-0.03 -2.75,-11.1 -3.51,-22.94 -2.12,-34.87 0,-0.13 -0.11,-0.22 -0.27,-0.25 -7.51,-2.36 -15.82,-3.65 -24.65,-3.52 -0.48,0.05 -0.47,-0.41 0.03,-0.89 a 92.85,92.85 0 0 1 33.3,-20.68 q 6.525,18.405 12.78,36.87 c 0.08,0.24 0.41,0.37 0.75,0.31 0.06,0 10.29,-1.8 17.99,-2.86 l 0.62,6.48 z m 227,-20.12 a 92.5,92.5 0 0 0 -33.31,-20.68 2772,2772 0 0 0 -12.79,36.87 c -0.08,0.24 -0.41,0.37 -0.75,0.31 -0.05,0 -10.4,-1.82 -17.98,-2.85 -0.27,3.02 -0.62,6.47 -0.62,6.47 15.97,1.01 29.64,8.76 37.68,19.45 0.25,0.28 0.64,0.27 0.76,-0.03 2.75,-11.1 3.51,-22.94 2.12,-34.87 0,-0.13 0.11,-0.22 0.27,-0.25 7.51,-2.36 15.82,-3.65 24.65,-3.52 0.48,0.05 0.47,-0.41 -0.03,-0.89 z"
       style="fill:#ffd215"
       id="path66" />
    <path
       d="m 246.08,283.24 -18.7,3.61 0.62,-6.47 c 5.96,0.85 12.16,1.83 18.08,2.87 z m -198.96,0 18.71,3.61 -0.62,-6.48 c -5.96,0.85 -12.17,1.83 -18.09,2.87"
       style="fill:#e09b00"
       id="path68" />
    <path
       d="M 46.58,283.24 27.54,228.91 c 70.6,-12.83 144.51,-17.01 238.14,-0.08 l -19.07,54.41 c -65.25,-10.44 -124.9,-12.55 -200.04,0 z"
       style="fill:#ffec00"
       id="path70" />
    <path
       d="m 225.67,110.11 c 0.19,0.93 0.3,1.9 0.3,2.89 0,1 -0.09,1.98 -0.28,2.93 7.01,1.12 12.38,7.16 12.42,14.49 0,0.46 -0.02,0.91 -0.06,1.36 3.57,0.47 6.74,2.22 9.04,4.77 -10.07,15.3 -51.19,26.94 -100.49,27.22 -56.44,0.32 -102.35,-14.37 -103.22,-32.9 0.12,-0.13 0.24,-0.28 0.37,-0.41 -0.87,-1.49 -1.47,-3.14 -1.78,-4.9 -5.4,5.13 -8.67,9.27 -8.1,15.29 0.03,0.4 5.9,42.58 11.83,85.02 2.9,-0.46 5.82,-0.89 8.74,-1.32 l -7.32,-56.04 c 6.9,5.86 16.26,9.94 25.86,13.03 l 3.95,40.1 c 5.48,-0.61 11.01,-1.16 16.58,-1.64 l -2.7,-34.15 c 14.81,3.16 32.19,4.98 45.62,5.37 l 0.32,26.57 c 6.49,-0.1 13.06,-0.09 19.72,0.02 l 0.32,-26.59 c 13.43,-0.39 30.81,-2.21 45.62,-5.37 l -2.7,34.19 c 5.46,0.47 10.99,1.02 16.58,1.64 l 3.96,-40.14 c 9.6,-3.08 18.96,-7.17 25.86,-13.03 l -7.32,56.01 a 580,580 0 0 1 8.74,1.33 c 5.92,-42.43 11.8,-84.61 11.82,-85.01 1.14,-12.05 -12.95,-22.98 -33.68,-30.75 z"
       class="cls-2"
       id="path72" />
    <path
       d="m 72.98,181.55 c -9.6,-3.08 -18.96,-7.17 -25.86,-13.03 l 7.32,56.04 c 7.43,-1.08 14.92,-2.06 22.49,-2.91 z m 63.45,9.68 C 123,190.84 105.62,189.02 90.81,185.86 l 2.7,34.15 c 14.08,-1.21 28.45,-1.99 43.24,-2.22 l -0.32,-26.57 z m 65.98,-5.37 c -14.81,3.16 -32.19,4.98 -45.62,5.37 l -0.32,26.59 c 13.99,0.23 28.38,0.96 43.24,2.23 z m 43.69,-17.34 c -6.9,5.86 -16.26,9.94 -25.86,13.03 l -3.96,40.14 c 7.38,0.82 14.86,1.75 22.5,2.85 l 7.32,-56.01 z"
       class="cls-8"
       id="path74" />
    <path
       d="m 43.39,130.88 c 0.87,18.53 46.78,33.22 103.22,32.9 49.29,-0.28 90.41,-11.92 100.49,-27.22 -2.3,-2.55 -5.47,-4.3 -9.04,-4.77 0.04,-0.45 0.06,-0.9 0.06,-1.36 -0.04,-7.33 -5.42,-13.37 -12.42,-14.49 0.19,-0.95 0.28,-1.93 0.28,-2.93 -0.05,-8.16 -6.7,-14.74 -14.86,-14.69 -0.19,0 -0.36,0.02 -0.55,0.03 0.52,-1.53 0.82,-3.16 0.81,-4.86 -0.05,-8.16 -6.7,-14.74 -14.86,-14.69 -1.87,0.01 -3.66,0.38 -5.3,1.03 -2.33,-4.4 -6.82,-7.46 -12.04,-7.81 -0.91,-7.33 -7.17,-12.98 -14.74,-12.94 -4.76,0.03 -8.97,2.31 -11.66,5.83 -2.72,-2.96 -6.62,-4.82 -10.96,-4.79 -8.16,0.05 -14.74,6.7 -14.69,14.86 0,1.56 0.26,3.06 0.72,4.47 -3.33,0.62 -6.26,2.35 -8.4,4.8 -1.7,-6.33 -7.48,-10.98 -14.34,-10.94 -6.41,0.04 -11.83,4.16 -13.84,9.88 -5.45,2.2 -9.28,7.55 -9.24,13.78 0,1.38 0.22,2.72 0.58,3.99 -1.84,-0.8 -3.86,-1.25 -6,-1.24 -6.44,0.04 -11.87,4.19 -13.87,9.94 -1.91,-0.89 -4.04,-1.39 -6.29,-1.38 -8.16,0.05 -14.74,6.7 -14.69,14.86 0.02,2.69 0.76,5.2 2.03,7.37 -0.13,0.13 -0.24,0.27 -0.37,0.41 z M 171.2,261.24 c -0.98,0.15 -1.96,0.3 -2.95,0.44 0.89,-0.25 1.88,-0.4 2.95,-0.44"
       class="cls-10"
       id="path76" />
    <path
       d="M 46.58,283.38 27.54,229.05 c 70.6,-12.83 144.51,-17.01 238.14,-0.08 l -19.07,54.41 c -65.25,-10.44 -124.9,-12.55 -200.04,0 z"
       class="cls-9"
       id="path78" />
    <path
       d="m 152.4,181.15 c -10.02,0 -18.17,-4.61 -22.95,-12.21 v 7.35 a 4.12,4.12 0 0 1 -4.12,4.12 h -15.12 a 4.12,4.12 0 0 1 -4.12,-4.12 v -14.98 h -3.19 v 14.98 a 4.12,4.12 0 0 1 -4.12,4.12 H 83.66 a 4.12,4.12 0 0 1 -4.12,-4.12 V 127.12 A 4.12,4.12 0 0 1 83.66,123 h 15.12 a 4.12,4.12 0 0 1 4.12,4.12 v 14.02 h 3.19 v -14.02 a 4.12,4.12 0 0 1 4.12,-4.12 h 15.12 a 4.12,4.12 0 0 1 4.12,4.12 v 7.17 c 4.74,-7.55 12.86,-12.03 23.02,-12.03 7.42,0 13.43,2.16 18.3,6.6 v -1.75 a 4.12,4.12 0 0 1 4.12,-4.12 h 34.65 a 4.12,4.12 0 0 1 4.12,4.12 v 11.8 a 4.12,4.12 0 0 1 -4.12,4.12 h -6.05 v 33.26 a 4.12,4.12 0 0 1 -4.12,4.12 h -14.3 a 4.12,4.12 0 0 1 -4.12,-4.12 v -14.64 l -2.61,0.31 c -3.56,11.67 -13.24,19.19 -25.94,19.19"
       class="cls-2"
       id="path80" />
    <path
       d="M 83.68,127.11 H 98.8 v 18.14 h 11.43 v -18.14 h 15.12 v 49.18 h -15.12 v -19.1 H 98.8 v 19.1 H 83.68 Z m 68.79,-0.73 c 6.93,0 12.24,2.06 16.59,6.56 4.5,4.72 6.64,10.62 6.64,18.65 0,15.04 -9.51,25.44 -23.3,25.44 -13.79,0 -23.45,-10.17 -23.45,-25.29 0,-15.12 9.36,-25.36 23.52,-25.36 m 6.41,32.22 c 0.29,-1.99 0.59,-5.53 0.59,-8.18 0,-8.7 -2.21,-12.9 -6.93,-12.9 -4.72,0 -7.37,5.09 -7.37,14.67 0,9.58 2.36,13.71 7.15,13.71 3.76,0 5.75,-2.29 6.56,-7.3 m 26.18,-19.69 h -10.18 v -11.8 h 34.65 v 11.8 h -10.17 v 37.38 h -14.3 z m 22.44,81.91 c -0.82,-5.91 -4.54,-9.49 -10.14,-9.49 -1.51,0 -3.03,0.48 -4.32,1.19 -0.37,-0.35 -0.87,-0.57 -1.42,-0.57 h -8.77 c -0.5,0 -0.96,0.18 -1.31,0.47 -0.42,-0.72 -0.91,-1.41 -1.47,-2.06 -2.3,-2.68 -5.56,-4.04 -9.71,-4.04 -4.15,0 -7.25,1.33 -9.75,3.94 -0.7,0.72 -1.31,1.49 -1.81,2.33 v -6.71 h -13.76 c -1.14,0 -2.06,0.92 -2.06,2.06 v 3.97 h -0.23 c -0.3,0 -3.1,-0.02 -3.1,-0.02 v -3.97 c 0,-1.14 -0.92,-2.06 -2.06,-2.06 h -8.77 c -1.14,0 -2.06,0.92 -2.06,2.06 v 3.97 h -0.23 c -1.14,0 -2.06,0.92 -2.06,2.06 v 1.7 c -1.72,-1.9 -4.06,-3.26 -6.93,-3.92 -1.48,-0.29 -2.74,-0.42 -3.98,-0.42 -1.37,0 -2.75,0.17 -4.55,0.56 -2.51,0.66 -4.61,1.85 -6.23,3.46 -0.84,-6.54 -6,-10.38 -14.15,-10.38 H 76.51 c -1.14,0 -2.06,0.92 -2.06,2.06 v 14.98 c 41.16,-4.78 84.52,-5.92 133.04,-1.19 z"
       class="cls-8"
       id="path82" />
    <path
       d="m 181.37,219.82 c 0,-3.18 -0.96,-5.87 -2.87,-8.1 -1.91,-2.23 -4.64,-3.32 -8.14,-3.32 -3.5,0 -6.14,1.09 -8.28,3.32 -2.14,2.18 -3.18,5 -3.18,8.51 0,3.51 1.14,6.37 3.41,8.42 2.27,2.05 5.14,3.09 8.6,3.09 3.46,0 7.17,-0.62 10.12,-3.76 l -5.37,-5.05 c -1.13,1.49 -2.7,1.76 -4.84,1.76 -1.82,0 -3.78,-1 -4.19,-2.78 h 14.7 l 0.05,-2.09 z m -14.74,-2.17 c 0.36,-1.68 1.68,-2.85 3.56,-2.85 2.09,0 3.26,1.22 3.41,2.85 z m 58.02,33.13 c 0,-3.18 -0.96,-5.87 -2.87,-8.1 -1.91,-2.23 -4.64,-3.32 -8.14,-3.32 -3.5,0 -6.14,1.09 -8.28,3.32 -2.14,2.18 -3.18,5 -3.18,8.51 0,3.51 1.14,6.37 3.41,8.42 2.27,2.05 5.14,3.09 8.6,3.09 3.46,0 7.17,-0.62 10.12,-3.76 l -5.37,-5.05 c -1.13,1.49 -2.7,1.76 -4.84,1.76 -1.82,0 -3.78,-1 -4.19,-2.77 h 14.7 l 0.05,-2.09 z m -14.74,-2.17 c 0.36,-1.68 1.68,-2.85 3.56,-2.85 2.09,0 3.26,1.22 3.41,2.85 z M 96.12,225.85 96.4,225.68 c 2.95,-1.78 4.45,-4.6 4.45,-8.37 0,-6.53 -4.45,-10.28 -12.21,-10.28 H 76.52 v 29.12 h 8.82 v -9.45 h 1.47 l 5.53,9.45 h 9.93 l -6.14,-10.3 z m -8.27,-5.89 h -2.53 v -6.13 h 2.53 c 2.45,0 4.03,1.16 4.03,2.96 0,2.02 -1.47,3.17 -4.03,3.17 m -2,19.79 c -2.93,-0.58 -4.55,-0.48 -7.25,0.11 -4.86,1.29 -8.47,5.07 -8.47,11.17 0,7.66 5.87,11.67 12.31,11.67 6.44,0 11.99,-4.01 11.99,-11.67 0,-6.28 -3.52,-10.11 -8.58,-11.28 m -3.57,14.81 c -2.13,0 -4.03,-1.61 -4.03,-3.84 0,-2.23 1.9,-3.88 4.03,-3.88 2.13,0 4.03,1.6 4.03,3.88 0,2.28 -1.83,3.84 -4.03,3.84 m 49.35,-5.26 v 12.82 h -8.92 v -12.04 c 0,-1.89 -0.81,-2.85 -2.4,-2.85 -1.59,0 -1.91,1 -2.01,1.32 -0.27,0.98 -0.32,1.54 -0.32,2.73 v 10.83 h -8.79 v -12.04 c 0,-1.89 -0.82,-2.85 -2.45,-2.85 -0.92,0 -1.52,0.45 -1.76,0.83 -0.17,0.25 -0.29,0.7 -0.37,1.02 -0.16,0.91 -0.16,1.24 -0.16,2.2 v 10.83 h -8.54 v -22.18 h 8.46 V 242 c 0.59,-1.22 2.88,-2.66 6.09,-2.66 2.64,0 4.75,0.91 6.09,2.63 l 0.24,0.3 0.26,-0.29 c 1.6,-1.81 3.43,-2.58 6.13,-2.58 2.54,0 8.46,0.96 8.46,9.88 z m 40.26,5.36 h 2.78 v 7.6 l -0.51,0.02 c -0.89,0.04 -2.09,0.09 -3.33,0.09 -5.89,0 -9.26,-2.95 -9.26,-8.67 v -6.12 h -2.29 v -7.64 h 2.29 v -6.04 h 8.78 v 6.04 h 3.46 v 7.64 h -3.46 v 5.55 c 0,1.08 0.46,1.54 1.54,1.54 z"
       class="cls-3"
       id="path84" />
    <path
       d="m 73.05,241.42 h -7.54 v 20.7 h -8.56 v -20.7 H 49.41 V 233 h 23.64 z m 82.3,-12.71 h 2.78 v 7.59 l -0.51,0.02 c -0.89,0.04 -2.09,0.09 -3.33,0.09 -5.88,0 -9.25,-2.95 -9.25,-8.66 v -6.12 h -2.29 V 214 h 2.29 v -6.03 h 8.77 V 214 h 3.46 v 7.63 h -3.46 v 5.55 c 0,1.08 0.46,1.54 1.54,1.54 z m -26.53,-7.1 h -2.29 v -7.63 h 2.29 v -6.03 h 8.77 v 6.03 h 3.46 v 7.63 h -3.46 v 5.55 c 0,1.08 0.46,1.54 1.54,1.54 h 2.78 v 7.59 l -0.51,0.02 c -0.89,0.04 -2.09,0.09 -3.33,0.09 -5.88,0 -9.25,-2.95 -9.25,-8.66 v -6.12 z m 20.26,18.38 v 2.54 l -0.55,-0.61 c -1.54,-1.68 -3.47,-2.56 -5.59,-2.56 -1.49,0 -3.07,0.45 -4.55,1.31 -3.31,1.91 -5.28,5.77 -5.29,10.33 0,4.58 1.97,8.46 5.29,10.38 1.48,0.86 3.07,1.31 4.58,1.31 2.11,0 4.03,-0.87 5.56,-2.5 l 0.55,-0.59 v 2.49 h 8.5 v -22.1 z m -1.05,13.56 c -0.67,0.76 -1.62,1.15 -2.75,1.15 -1.82,0 -3.67,-1.26 -3.67,-3.67 0,-0.96 0.33,-1.85 0.92,-2.52 0.67,-0.76 1.62,-1.15 2.75,-1.15 1.83,0 3.67,1.26 3.67,3.67 0,0.96 -0.33,1.85 -0.92,2.52 m 43.67,-17.4 h -8.86 v -22.13 h 8.77 v 2.56 c 0.59,-1.34 3.18,-3.19 5.74,-3.19 5.25,0 8.26,3.63 8.26,9.97 v 12.79 h -8.84 v -12.06 c 0,-1.86 -0.8,-2.8 -2.38,-2.8 -1.58,0 -2.68,0.7 -2.68,4.18 v 10.68 z m 53.41,18.47 c 0,2.41 -0.97,4.41 -2.88,5.95 -1.8,1.49 -4.18,2.25 -7.04,2.25 -3.72,0 -6.73,-0.78 -9.43,-2.55 l -0.51,-0.36 3.52,-5.81 c 4.04,2.59 6.13,2.2 6.93,2.14 1.75,-0.13 1.94,-2.07 0.49,-2.04 -1.11,0.03 -3.31,0.25 -6.56,-1.26 -2.28,-1.39 -3.76,-3.02 -3.76,-5.69 0,-2.31 0.96,-4.21 2.86,-5.63 1.82,-1.37 3.56,-2.12 6.16,-2.24 3.37,-0.16 5.81,0.58 8.83,2.13 l 0.64,0.42 -3.21,5.29 c -3.52,-1.41 -5.34,-1.79 -6.62,-1.55 -1.5,0.28 -1.28,1.74 -0.18,1.88 1.1,0.15 2.86,-0.33 6.18,0.85 2.88,1.15 4.59,3.02 4.59,6.21 z m -131.55,-17.9 c 6.84,0 12.16,-4.01 12.16,-11.66 0,-6.28 -3.52,-10.11 -8.57,-11.28 -2.93,-0.58 -4.91,-0.48 -7.6,0.11 -4.86,1.29 -8.46,5.07 -8.46,11.17 0,7.65 5.64,11.66 12.48,11.66 z"
       class="cls-3"
       id="path86" />
    <path
       d="m 106.99,224.62 c -1.16,-0.47 -1.85,-1.47 -1.31,-2.55 0.4,-0.81 1.59,-1.13 2.5,-0.78 1.09,0.42 1.26,1.55 1.82,2.02 0.48,0.4 1.13,0.45 1.56,0.18 0.32,-0.2 0.42,-0.65 0.3,-1.06 -0.16,-0.54 -0.58,-0.88 -0.99,-1.22 -0.73,-0.59 -1.76,-1.1 -1.14,-2.72 0.51,-1.33 2.01,-1.37 2.01,-1.37 0.59,-0.07 1.13,0.11 1.56,0.5 0.58,0.52 0.69,1.21 0.6,1.95 -0.09,0.67 -0.33,1.27 -0.45,1.93 -0.14,0.78 0.27,1.56 1.06,1.59 1.04,0.04 1.35,-0.76 1.48,-1.26 0.19,-0.74 0.43,-1.43 1.12,-1.86 0.99,-0.62 2.35,-0.48 2.99,0.71 0.5,0.94 0.34,2.24 -0.43,2.95 -0.35,0.32 -0.76,0.43 -1.21,0.43 -0.64,0 -1.29,-0.01 -1.89,0.29 -0.41,0.21 -0.58,0.54 -0.58,0.99 0,0.44 0.23,0.72 0.6,0.91 0.69,0.35 1.46,0.42 2.21,0.55 1.09,0.19 2.04,0.57 2.66,1.58 0,0 0.01,0.02 0.02,0.03 0.7,1.19 -0.03,2.92 -1.42,2.99 -3.08,0.16 -3.72,-3.37 -4.93,-3.34 -0.52,0.01 -0.92,0.55 -0.74,1.18 0.1,0.35 0.37,0.85 0.54,1.17 0.61,1.11 -0.29,2.36 -1.34,2.47 -1.74,0.18 -2.47,-0.83 -2.42,-1.87 0.05,-1.16 1.03,-2.35 0.03,-2.85 -1.06,-0.53 -1.92,1.54 -2.93,2 -0.92,0.42 -2.19,0.09 -2.64,-0.92 -0.32,-0.71 -0.26,-2.09 1.15,-2.61 0.88,-0.33 2.85,0.43 2.95,-0.53 0.12,-1.1 -2.07,-1.2 -2.72,-1.46 z"
       class="cls-9"
       id="path88" />
    <path
       d="m 200.76,248.44 c 1.61,6.65 -3.21,12.23 -9.48,13.75 -6.27,1.51 -13.25,-1.22 -14.86,-7.87 -1.13,-4.69 0.57,-8.5 3.8,-10.99 0.31,-0.25 0.69,-0.5 0.95,-0.59 -1.61,0.14 -2.59,0.06 -3.57,0.39 -0.11,0.04 -0.21,-0.08 -0.15,-0.18 1.05,-1.99 3.46,-2.96 5.17,-2.3 a 281,281 0 0 1 -2.07,-1.82 l 1.59,-1.32 c 0,0 1.02,1.5 1.76,2.6 0.97,-2.18 3.39,-2.79 4.67,-1.59 0.08,0.07 0.03,0.2 -0.07,0.21 -0.85,0.13 -1.16,1.01 -1.09,1.59 l 0.73,-0.09 c 6.01,-0.77 11.17,2.22 12.62,8.21 m 48.52,-7.04 c 0.43,-0.2 0.64,-0.53 0.64,-1.01 0,-0.74 -0.58,-1.1 -1.32,-1.1 h -1.39 v 3.09 h 0.84 v -0.85 h 0.42 l 0.59,0.85 h 0.95 l -0.73,-0.99 z m -0.82,-0.62 h -0.41 v -0.76 h 0.41 c 0.41,0 0.62,0.12 0.62,0.37 0,0.25 -0.21,0.39 -0.62,0.39"
       class="cls-3"
       id="path90" />
    <path
       d="m 250.85,238.5 c -0.65,-0.67 -1.45,-1 -2.39,-1 -0.94,0 -1.73,0.33 -2.38,1 -0.64,0.67 -0.96,1.47 -0.96,2.42 0,0.95 0.32,1.74 0.96,2.4 0.65,0.65 1.44,0.99 2.38,0.99 0.94,0 1.74,-0.33 2.39,-0.99 0.65,-0.67 0.99,-1.47 0.99,-2.4 0,-0.93 -0.33,-1.75 -0.99,-2.42 m -0.65,4.19 q -0.705,0.72 -1.74,0.72 c -1.035,0 -1.26,-0.23 -1.73,-0.72 -0.47,-0.48 -0.7,-1.07 -0.7,-1.78 0,-0.71 0.23,-1.31 0.7,-1.79 0.47,-0.49 1.05,-0.74 1.73,-0.74 0.68,0 1.27,0.25 1.74,0.74 0.48,0.48 0.72,1.09 0.72,1.79 0,0.7 -0.23,1.29 -0.72,1.78"
       class="cls-3"
       id="path92" />
    <path
       d="m 259.53,246.05 c -4.19,11.83 -8.76,25.01 -12.79,36.87 L 266,248.63 c 0,0 -3.14,-1.4 -6.47,-2.58 m -225.85,0 c -3.44,1.24 -6.45,2.58 -6.45,2.58 l 19.23,34.23 c -4.02,-11.84 -8.59,-25 -12.78,-36.81"
       style="opacity:0.5;fill:#e09b00"
       id="path94" />
    <path
       d="m 107.52,56.25 -2.44,-4.87 -11.15,5.58 -2.24,-4.47 10.59,-5.3 -2.35,-4.68 -10.58,5.3 -2.02,-4.03 11.15,-5.58 -2.44,-4.88 -17.17,8.59 11.49,22.94 z m 18.56,-4.81 7.03,-1.56 -7.34,-7.78 0.22,-0.17 c 2.7,-2.13 3.63,-4.87 2.84,-8.39 -0.61,-2.73 -1.99,-4.67 -4.12,-5.75 -2.12,-1.07 -4.86,-1.25 -8.14,-0.52 l -9.92,2.2 5.56,25.05 6.13,-1.36 -1.76,-7.91 3.02,-0.67 6.46,6.86 z m -10.65,-11.48 -1.45,-6.52 3.39,-0.75 c 3.2,-0.71 4.84,-0.05 5.33,2.14 0.25,1.12 0.03,2.06 -0.64,2.8 -0.65,0.71 -1.74,1.24 -3.24,1.58 z m 23.472,-15.796 6.277,-0.18 0.734,25.64 -6.277,0.18 z m 17.848,0.036 -3.68,25.4 6.21,0.9 1.38,-9.54 10.68,1.55 0.75,-5.18 -10.68,-1.55 0.77,-5.27 11.53,1.67 0.78,-5.41 z m 19.557,29.847 8.04,-24.368 5.964,1.968 -8.04,24.368 z m 24.623,-18.357 -12.24,22.55 16.87,9.16 2.61,-4.8 -10.96,-5.94 2.38,-4.4 10.4,5.65 2.5,-4.6 -10.4,-5.64 2.15,-3.97 10.96,5.95 2.6,-4.8 z m 34.56,40.56 c 3.04,-3.34 4.28,-7 3.49,-10.32 -0.75,-3.12 -2.47,-5.87 -5.26,-8.42 l -6.79,-6.19 -17.28,18.96 6.79,6.19 c 3.09,2.82 11.15,8.44 19.05,-0.22 m -10.05,-1.51 c -1.88,-0.02 -3.88,-0.98 -5.93,-2.85 l -1.54,-1.41 9.93,-10.89 1.51,1.38 c 4.15,3.79 4.63,7.5 1.41,11.03 -1.5,1.64 -3.1,2.56 -4.78,2.72 -0.2,0.02 -0.4,0.03 -0.61,0.03 z M 66.74,50.23 74.2,67.83 58.35,57.14 53.11,61.46 75.72,76.03 81.96,70.89 71.98,45.91 Z"
       id="path96" />
  </g>
</svg>
